<svg width="64" height="64" viewBox="0 0 64 64" fill="none" xmlns="http://www.w3.org/2000/svg">
<circle cx="32" cy="32" r="32" fill="url(#paint0_linear)"/>
<path d="M16.5212 18.9897L15.7956 39.2694L24.1894 44.7763M16.5212 18.9897L24.9708 22.9366M16.5212 18.9897L35.3618 16.2795L43.5608 19.9571M24.1894 44.7763L24.9708 22.9366M24.1894 44.7763L44.2275 40.8455L43.5608 19.9571M24.9708 22.9366L43.5608 19.9571" stroke="white" stroke-width="1.56098" stroke-linejoin="round"/>
<path d="M42.2129 50.2682C40.8531 50.6255 39.4292 50.7385 37.941 50.6071C36.4686 50.4489 35.07 50.0102 33.7453 49.2907L35.5765 45.3685C36.4876 45.8105 37.4423 46.1161 38.4407 46.2853C39.4604 46.4489 40.4057 46.4162 41.2768 46.1873C42.2541 45.9305 42.929 45.5601 43.3015 45.0761C43.6953 44.5865 43.8112 44.0337 43.6493 43.4175C43.5656 43.0988 43.4186 42.8422 43.2085 42.6476C43.0196 42.4473 42.7647 42.2985 42.4439 42.2012C42.1387 42.0769 41.7753 41.9907 41.3538 41.9425C40.948 41.8674 40.4968 41.7929 40.0004 41.7189L36.9901 41.2835C36.4031 41.2106 35.81 41.0712 35.2108 40.8652C34.6328 40.6537 34.0833 40.3779 33.5624 40.0378C33.0572 39.6709 32.6095 39.2207 32.2195 38.6872C31.8239 38.1325 31.5256 37.4727 31.3246 36.7079C31.1013 35.858 31.0725 35.0138 31.2383 34.1753C31.3985 33.3156 31.7353 32.5229 32.2488 31.7975C32.7567 31.0508 33.4149 30.4008 34.2235 29.8476C35.0533 29.2889 36.01 28.8672 37.0936 28.5824C38.3046 28.2642 39.5558 28.1853 40.8471 28.3456C42.1597 28.5004 43.3794 28.9067 44.5062 29.5645L42.8949 33.1564C42.0755 32.8039 41.2895 32.5789 40.5371 32.4814C39.779 32.3626 38.9857 32.412 38.1571 32.6298C37.3498 32.8419 36.7464 33.1822 36.3471 33.6505C35.9634 34.092 35.8498 34.6102 36.0061 35.2051C36.0898 35.5238 36.2368 35.7805 36.4469 35.9751C36.6727 36.1429 36.9488 36.2861 37.2753 36.4047C37.6174 36.4965 38.002 36.5772 38.4291 36.6467C38.8506 36.6949 39.3095 36.756 39.8059 36.83L42.7677 37.2101C44.1764 37.385 45.3592 37.8237 46.316 38.5262C47.2941 39.2231 47.9758 40.3046 48.361 41.7706C48.5899 42.6417 48.6271 43.5177 48.4724 44.3987C48.3335 45.2529 48.0022 46.0668 47.4787 46.8403C46.9708 47.587 46.2757 48.2694 45.3933 48.8874C44.5053 49.4841 43.4452 49.9444 42.2129 50.2682Z" fill="white"/>
<defs>
<linearGradient id="paint0_linear" x1="32" y1="0" x2="32" y2="64" gradientUnits="userSpaceOnUse">
<stop stop-color="#578A9A"/>
<stop offset="1" stop-color="#A8CCC5"/>
</linearGradient>
</defs>
</svg>
